<svg id="Layer_1" data-name="Layer 1" xmlns="http://www.w3.org/2000/svg" viewBox="0 0 512 512"><title>Property valuation</title><path d="M246.258,140.635H181.1a6,6,0,0,0,0,12h65.162a6,6,0,1,0,0-12Z"/><path d="M337.956,198.056H295.942a6,6,0,0,0,0,12h42.014a6,6,0,0,0,0-12Z"/><path d="M246.258,174.863H181.1a6,6,0,0,0,0,12h65.162a6,6,0,0,0,0-12Z"/><path d="M246.258,209.093H181.1a6,6,0,0,0,0,12h65.162a6,6,0,0,0,0-12Z"/><path d="M246.258,243.321H181.1a6,6,0,0,0,0,12h65.162a6,6,0,0,0,0-12Z"/><path d="M246.258,277.55H181.1a6,6,0,0,0,0,12h65.162a6,6,0,0,0,0-12Z"/><path d="M337.956,231.594H295.942a6,6,0,0,0,0,12h42.014a6,6,0,0,0,0-12Z"/><path d="M337.956,265.133H295.942a6,6,0,0,0,0,12h42.014a6,6,0,0,0,0-12Z"/><path d="M295.942,176.517h22.924a6,6,0,0,0,0-12H295.942a6,6,0,0,0,0,12Z"/><path d="M295.942,142.979h3.834a6,6,0,0,0,0-12h-3.834a6,6,0,0,0,0,12Z"/><path d="M246.258,106.406H181.1a6,6,0,0,0,0,12h65.162a6,6,0,0,0,0-12Z"/><path d="M380.7,297.062h20.047a6,6,0,0,0,0-12H380.7a6,6,0,0,0,0,12Z"/><path d="M380.7,274.43h20.047a6,6,0,0,0,0-12H380.7a6,6,0,0,0,0,12Z"/><path d="M380.7,251.8h20.047a6,6,0,0,0,0-12H380.7a6,6,0,0,0,0,12Z"/><path d="M129.438,205.688H94.014a6,6,0,0,0,0,12h35.424a6,6,0,0,0,0-12Z"/><path d="M129.438,228.648H94.014a6,6,0,1,0,0,12h35.424a6,6,0,0,0,0-12Z"/><path d="M129.438,274.567H94.014a6,6,0,0,0,0,12h35.424a6,6,0,0,0,0-12Z"/><path d="M129.438,251.607H94.014a6,6,0,1,0,0,12h35.424a6,6,0,0,0,0-12Z"/><path d="M70.343,318.779H423.487a6,6,0,0,0,6-6v-93.55a6,6,0,0,0-6-6H413.325v-9.811a6,6,0,0,0-6-6h-9.519V185.866a6,6,0,0,0-12,0v11.552h-9.52a6,6,0,0,0-6,6v9.811h-4.162V172.837a56.235,56.235,0,1,0-58.6-75.793H281.3V73.938a6,6,0,0,0-6-6H263.936V40.119a6,6,0,0,0-6-6H218.425V16a6,6,0,0,0-12,0V34.119H169.418a6,6,0,0,0-6,6V67.938H152.057a6,6,0,0,0-6,6v70.724l-12.587,6.194V138.083a6,6,0,0,0-6-6H116.758v-4.944a6,6,0,0,0-12,0v4.944H92.046a6,6,0,0,0-6,6v36.11l-18.353,9.031a6,6,0,0,0-3.35,5.383V312.779A6,6,0,0,0,70.343,318.779ZM382.286,209.418h19.039v3.811H382.286Zm35.2,15.811v81.55H366.124v-81.55ZM360.124,72.688a44.241,44.241,0,1,1-44.236,44.237A44.287,44.287,0,0,1,360.124,72.688ZM281.3,109.044h23.154a56.439,56.439,0,0,0-.563,7.881,55.778,55.778,0,0,0,11.148,33.615,56.573,56.573,0,0,0,39.088,22.281V306.779H281.3ZM175.418,46.119h76.518V67.938H175.418ZM158.057,79.938H269.3V306.779H158.057ZM98.046,144.083H121.47v12.678L98.046,168.288Zm-21.7,48.259,69.714-34.305V306.779H76.343Z"/><path d="M360.211,134.421c-.029,0-.058,0-.087,0s-.058,0-.087,0a5.891,5.891,0,0,1-5.8-5.881,6,6,0,1,0-12,0,17.9,17.9,0,0,0,11.886,16.828V147.5a6,6,0,0,0,12,0v-2.129a17.873,17.873,0,0,0-6-34.714,5.885,5.885,0,1,1,5.886-5.885,6,6,0,0,0,12,0,17.9,17.9,0,0,0-11.886-16.828V86.353a6,6,0,0,0-12,0v1.588a17.873,17.873,0,0,0,6,34.713,5.884,5.884,0,0,1,.087,11.767Z"/><path d="M403.453,344.562l-1.2.645c-8.274-9.44-22.1-12.982-32.7-7.61-.045.022-.09.046-.134.069l-3.982,2.146a36.069,36.069,0,0,0-40.732-3.28L300.131,349.9H267.364a46.647,46.647,0,0,1-20.194-4.626l-4.544-2.2a79.018,79.018,0,0,0-82.234,8.031c-.131.1-.259.2-.381.312l-10.972,9.768a37.022,37.022,0,0,1-12.948,7.48l-5.927-19.44a6,6,0,0,0-5.739-4.25H71.366A6,6,0,0,0,65.41,351.7L83.1,496.727A6,6,0,0,0,89.053,502h79.588a6,6,0,0,0,5.739-7.75l-10.224-33.535,31.852-20.137a18.571,18.571,0,0,1,13.5-1.735q.186.046.375.081l66.242,12.2a86.805,86.805,0,0,0,53.626-7.572,5.925,5.925,0,0,0,.734-.431l114.57-78.664a6,6,0,0,0,1.743-8.041A32.5,32.5,0,0,0,403.453,344.562ZM375.04,348.27c5.171-2.581,11.592-.782,16.12,2.923l-42.1,22.713-1.483.782a38.742,38.742,0,0,0-4.924-8.966Zm-44.531-1.232c.048-.026.095-.053.142-.08a24.055,24.055,0,0,1,22.8-.688l-19.792,10.665a38.6,38.6,0,0,0-11.31-5.461ZM94.365,490,78.143,356.973h41.838L160.539,490Zm229.686-57.019a74.713,74.713,0,0,1-45.771,6.337l-66.046-12.163a30.51,30.51,0,0,0-22.213,3.022c-.095.052-.188.108-.279.166l-29.215,18.47L139.59,380.139a49.007,49.007,0,0,0,17.428-9.993l10.784-9.6a67.058,67.058,0,0,1,69.6-6.671l4.544,2.2a58.7,58.7,0,0,0,25.419,5.824h44.065a26.808,26.808,0,0,1,26.009,20.452l-30.562-1.384a192.035,192.035,0,0,0-34.951,1.614,6,6,0,0,0,1.644,11.887,180.1,180.1,0,0,1,32.764-1.513l37.586,1.7c.091,0,.182.006.271.006a6,6,0,0,0,6-6c0-.59-.018-1.176-.044-1.76l4.559-2.4,54.446-29.372a20.531,20.531,0,0,1,23.814,3.078Z"/><path d="M108.065,470.625a16.612,16.612,0,1,0,16.612-16.612A16.631,16.631,0,0,0,108.065,470.625Zm16.612-4.612a4.612,4.612,0,1,1-4.612,4.612A4.617,4.617,0,0,1,124.677,466.013Z"/></svg>