<svg xmlns="http://www.w3.org/2000/svg" id="Apartment" viewBox="0 0 64 64" width="512" height="512"><path d="M58 59h-3v-5.09a5.976 5.976 0 003.793-9.5 4.953 4.953 0 00-1.136-4.81A3.909 3.909 0 0058 38a4 4 0 00-8 0 3.909 3.909 0 00.343 1.6 4.955 4.955 0 00-1.136 4.809A5.975 5.975 0 0053 53.91v1.222l-1.445-.964a1 1 0 10-1.11 1.664L53 57.535V59h-8V9h3a1 1 0 001-1V4a1 1 0 00-1-1H16a1 1 0 00-1 1v4a1 1 0 001 1h3v50h-7v-2.09a5.976 5.976 0 003.793-9.5 4.953 4.953 0 00-1.136-4.808A3.909 3.909 0 0015 41a4 4 0 00-8 0 3.909 3.909 0 00.343 1.6 4.953 4.953 0 00-1.136 4.808A5.976 5.976 0 0010 56.91V59H2a1 1 0 000 2h56a1 1 0 000-2zm-8-11a3.978 3.978 0 011.077-2.709 1 1 0 00.181-1.084 2.963 2.963 0 01.957-3.6 1 1 0 00.2-1.4A1.975 1.975 0 0152 38a2 2 0 014 0 1.975 1.975 0 01-.414 1.2 1 1 0 00.2 1.4 2.96 2.96 0 01.956 3.6 1 1 0 00.182 1.084A3.969 3.969 0 0155 51.858V49a1 1 0 00-2 0v2.858A4 4 0 0150 48zM7 51a3.978 3.978 0 011.077-2.709 1 1 0 00.182-1.084 2.96 2.96 0 01.956-3.6 1 1 0 00.2-1.4A1.975 1.975 0 019 41a2 2 0 014 0 1.975 1.975 0 01-.414 1.2 1 1 0 00.2 1.4 2.96 2.96 0 01.956 3.6 1 1 0 00.182 1.084A3.969 3.969 0 0112 54.858V52a1 1 0 00-2 0v2.858A4 4 0 017 51zM17 5h30v2H17zm13 54v-6h4v6zm6 0v-7a1 1 0 00-1-1h-6a1 1 0 00-1 1v7h-7V9h22v50zm26 0h-1a1 1 0 000 2h1a1 1 0 000-2z"/><path d="M30 31h-6a1 1 0 00-1 1v6a1 1 0 001 1h6a1 1 0 001-1v-6a1 1 0 00-1-1zm-1 6h-4v-4h4zm11-6h-6a1 1 0 00-1 1v6a1 1 0 001 1h6a1 1 0 001-1v-6a1 1 0 00-1-1zm-1 6h-4v-4h4zm-9-16h-6a1 1 0 00-1 1v6a1 1 0 001 1h6a1 1 0 001-1v-6a1 1 0 00-1-1zm-1 6h-4v-4h4zm11-6h-6a1 1 0 00-1 1v6a1 1 0 001 1h6a1 1 0 001-1v-6a1 1 0 00-1-1zm-1 6h-4v-4h4zm-9 14h-6a1 1 0 00-1 1v6a1 1 0 001 1h6a1 1 0 001-1v-6a1 1 0 00-1-1zm-1 6h-4v-4h4zm11-6h-6a1 1 0 00-1 1v6a1 1 0 001 1h6a1 1 0 001-1v-6a1 1 0 00-1-1zm-1 6h-4v-4h4zm-9-36h-6a1 1 0 00-1 1v6a1 1 0 001 1h6a1 1 0 001-1v-6a1 1 0 00-1-1zm-1 6h-4v-4h4zm11-6h-6a1 1 0 00-1 1v6a1 1 0 001 1h6a1 1 0 001-1v-6a1 1 0 00-1-1zm-1 6h-4v-4h4zm15 30a1 1 0 001-1v-1a1 1 0 00-2 0v1a1 1 0 001 1zm-8-31a4 4 0 004 4h7a.929.929 0 00.5-.145 3.5 3.5 0 00-.619-6.834 3.99 3.99 0 00-7.344-.994A4.006 4.006 0 0046 16zm3.965-2l.148.016a1 1 0 001.01-.669 1.992 1.992 0 013.877.608c0 .024 0 .049-.005.068a1 1 0 001.2 1.008A1.528 1.528 0 0158 16.5a1.5 1.5 0 01-1.2 1.47 1.088 1.088 0 00-.112.03H50a2 2 0 01-.035-4zM8 31h7a.929.929 0 00.5-.145 3.5 3.5 0 00-.619-6.834 3.99 3.99 0 00-7.344-.994A4 4 0 008 31zm-.035-6l.148.016a1 1 0 001.01-.669 1.992 1.992 0 013.877.608c0 .024 0 .049-.005.068a1 1 0 001.2 1.008A1.528 1.528 0 0116 27.5a1.5 1.5 0 01-1.2 1.47 1.088 1.088 0 00-.112.03H8a2 2 0 01-.035-4z"/></svg>