<svg height="640" viewBox="0 0 480 480.004" width="640" xmlns="http://www.w3.org/2000/svg"><path d="M472.004 160.004h-464c-4.422 0-8-3.582-8-8v-64c0-3.41 2.164-6.45 5.39-7.559l232-80a7.856 7.856 0 015.215 0l232 80a8.002 8.002 0 015.395 7.559v64a8 8 0 01-8 8zm-456-16h448V93.707l-224-77.238-224 77.238zm0 0"/><path d="M440.004 128.004h-400c-4.422 0-8-3.582-8-8v-9.184a7.99 7.99 0 015.39-7.558l200-68.969a7.856 7.856 0 015.215 0l200 68.969a7.998 7.998 0 015.395 7.558v9.184a8 8 0 01-8 8zm-378.899-16h357.786L240.004 50.316zm410.899 320h-16v-24a8 8 0 00-8-8h-8v-24a8 8 0 00-8-8h-8V222.867c14.082-3.637 23.945-16.316 24-30.863v-8a8 8 0 00-8-8h-112c-4.422 0-8 3.582-8 8v8c.05 14.547 9.914 27.226 24 30.863v145.137h-64V222.867c14.082-3.637 23.945-16.316 24-30.863v-8a8 8 0 00-8-8h-112c-4.422 0-8 3.582-8 8v8c.05 14.547 9.914 27.226 24 30.863v145.137h-64V222.867c14.082-3.637 23.945-16.316 24-30.863v-8a8 8 0 00-8-8h-112c-4.422 0-8 3.582-8 8v8c.05 14.547 9.914 27.226 24 30.863v145.137h-8c-4.422 0-8 3.582-8 8v24h-8c-4.422 0-8 3.582-8 8v24h-16c-4.422 0-8 3.582-8 8v32c0 4.418 3.578 8 8 8h464a8 8 0 008-8v-32a8 8 0 00-8-8zm-136-240h96c0 8.836-7.164 16-16 16h-64c-8.84 0-16-7.164-16-16zm24 32h48v144h-48zm-168-32h96c0 8.836-7.164 16-16 16h-64c-8.84 0-16-7.164-16-16zm24 32h48v144h-48zm-168-32h96c0 8.836-7.164 16-16 16h-64c-8.84 0-16-7.164-16-16zm24 32h48v144h-48zm-16 160h368v16h-368zm-16 32h400v16h-400zm424 48h-448v-16h448zm0 0"/></svg>