<svg version="1.1" id="Capa_1" xmlns="http://www.w3.org/2000/svg" x="0" y="0" viewBox="0 0 185.465 185.465" xml:space="preserve"><g fill="#000002"><path d="M93.353 180.899c-35.087 0-66.823-20.785-80.854-52.952a2.5 2.5 0 014.584-1.999c13.234 30.344 43.172 49.951 76.27 49.951 45.857 0 83.166-37.309 83.166-83.167v-.199a2.5 2.5 0 115 0v.199c0 48.615-39.55 88.167-88.166 88.167zM7.686 95.332a2.5 2.5 0 01-2.5-2.5v-.1c0-48.615 39.552-88.167 88.167-88.167 35.042 0 66.762 20.748 80.811 52.858a2.499 2.499 0 11-4.58 2.003c-13.253-30.29-43.175-49.862-76.23-49.862-45.858 0-83.167 37.308-83.167 83.167v.1a2.501 2.501 0 01-2.501 2.501z"/><path d="M2.5 132.152a2.5 2.5 0 01-2.402-3.191l5.46-18.969a2.498 2.498 0 013.571-1.518l17.449 9.23a2.5 2.5 0 01-.191 4.51l-22.909 9.739a2.515 2.515 0 01-.978.199zm7.011-17.821l-3.155 10.965 13.242-5.63-10.087-5.335zm168.711-39.066c-.371 0-.742-.083-1.085-.248l-17.783-8.567a2.5 2.5 0 01.021-4.514L181.9 51.341a2.502 2.502 0 013.491 2.863l-4.743 19.162a2.503 2.503 0 01-2.426 1.899zm-11.967-11.04l10.279 4.952 2.742-11.076-13.021 6.124zm-30.081 78.881H49.291a2.5 2.5 0 01-2.5-2.5V86.149h-8.36a2.5 2.5 0 01-1.73-4.304l54.302-52.072a2.5 2.5 0 013.461 0l54.302 52.072a2.5 2.5 0 01-1.73 4.304h-8.36v54.457a2.503 2.503 0 01-2.502 2.5zm-84.383-5h81.883V83.649a2.5 2.5 0 012.5-2.5h4.642L92.732 35.04 44.649 81.149h4.642a2.5 2.5 0 012.5 2.5v54.457z"/><path d="M107.982 122.667h-30.5a2.5 2.5 0 01-2.5-2.5v-31.56a2.5 2.5 0 012.5-2.5h30.5a2.5 2.5 0 012.5 2.5v31.56a2.5 2.5 0 01-2.5 2.5zm-28-5h25.5v-26.56h-25.5v26.56z"/></g></svg>