<svg version="1.1" id="Capa_1" xmlns="http://www.w3.org/2000/svg" x="0" y="0" viewBox="0 0 464.001 464.001" xml:space="preserve"><path d="M216 144c-17.673 0-32 14.327-32 32s14.327 32 32 32 32-14.327 32-32-14.327-32-32-32zm0 48c-8.837 0-16-7.163-16-16s7.163-16 16-16 16 7.163 16 16-7.163 16-16 16zm96 48c-17.673 0-32 14.327-32 32 0 17.673 14.327 32 32 32 17.673 0 32-14.327 32-32 0-17.673-14.327-32-32-32zm0 48c-8.837 0-16-7.163-16-16s7.163-16 16-16 16 7.163 16 16-7.163 16-16 16z"/><path transform="rotate(-45.001 263.998 224.003)" d="M173.491 215.999h181.017v16H173.491z"/><path d="M453.024 132.4L398.4 96h1.6V40a8 8 0 00-8-8h-40a8 8 0 00-8 8v19.72l-75.56-50.4a7.999 7.999 0 00-8.88 0L74.976 132.4c-11.324 7.549-14.385 22.848-6.836 34.172 7.549 11.324 22.848 14.385 34.172 6.836L128 156.288V312h-16a8 8 0 00-8-8H40a8 8 0 00-8 8H0v16h32v80H0v16h32a8 8 0 008 8h64a8 8 0 008-8v-3.048l59.728 24.8a138.4 138.4 0 00101.808 1.128l123.584-47.128a29.114 29.114 0 0016.344-15.576 29.647 29.647 0 00.464-22.96A29.036 29.036 0 00400 345.96V156.288l25.688 17.12c11.324 7.549 26.623 4.488 34.172-6.836 7.549-11.324 4.488-26.624-6.836-34.172zM96 416H48v-96h48v96zM360 48h24v38.4l-24-16V48zm38.792 329.728a13.215 13.215 0 01-7.408 7.096L267.8 431.944a122.396 122.396 0 01-90.016-.968L112 403.624V328h20.28a171.755 171.755 0 0176.424 18.04 56.614 56.614 0 0025.24 5.96H296c6.627.043 11.965 5.45 11.922 12.077a12 12 0 01-9.282 11.611c-1.048.096-2.072.312-3.136.312H200v16h96c.16 0 .312-.048.48-.048a49.284 49.284 0 0018.464-3.912l66.888-28.392a12.706 12.706 0 019.976 0 13.209 13.209 0 017.2 7.448 13.732 13.732 0 01-.216 10.632zM296 336h-62.056a40.688 40.688 0 01-18.088-4.272A187.824 187.824 0 00144 312.4V145.6l120-80 120 80v197.28a28.653 28.653 0 00-8.424 2.024l-51.872 22.024c.151-.97.25-1.947.296-2.928 0-15.464-12.536-28-28-28zm143.353-174.439a8.65 8.65 0 01-4.793-1.449L268.44 49.344a7.999 7.999 0 00-8.88 0L93.44 160.096a8.648 8.648 0 01-13.44-7.2 8.632 8.632 0 013.848-7.2L264 25.6l180.152 120.112a8.634 8.634 0 013.848 7.2 8.648 8.648 0 01-8.647 8.649z"/><path d="M64 384h16v16H64z"/></svg>