<svg id="Layer_1" data-name="Layer 1" xmlns="http://www.w3.org/2000/svg" viewBox="0 0 512 512"><path d="M246.258 140.635H181.1a6 6 0 000 12h65.162a6 6 0 100-12zm91.698 57.421h-42.014a6 6 0 000 12h42.014a6 6 0 000-12zm-91.698-23.193H181.1a6 6 0 000 12h65.162a6 6 0 000-12zm0 34.23H181.1a6 6 0 000 12h65.162a6 6 0 000-12zm0 34.228H181.1a6 6 0 000 12h65.162a6 6 0 000-12zm0 34.229H181.1a6 6 0 000 12h65.162a6 6 0 000-12zm91.698-45.956h-42.014a6 6 0 000 12h42.014a6 6 0 000-12zm0 33.539h-42.014a6 6 0 000 12h42.014a6 6 0 000-12zm-42.014-88.616h22.924a6 6 0 000-12h-22.924a6 6 0 000 12zm0-33.538h3.834a6 6 0 000-12h-3.834a6 6 0 000 12zm-49.684-36.573H181.1a6 6 0 000 12h65.162a6 6 0 000-12zM380.7 297.062h20.047a6 6 0 000-12H380.7a6 6 0 000 12zm0-22.632h20.047a6 6 0 000-12H380.7a6 6 0 000 12zm0-22.63h20.047a6 6 0 000-12H380.7a6 6 0 000 12zm-251.262-46.112H94.014a6 6 0 000 12h35.424a6 6 0 000-12zm0 22.96H94.014a6 6 0 100 12h35.424a6 6 0 000-12zm0 45.919H94.014a6 6 0 000 12h35.424a6 6 0 000-12zm0-22.96H94.014a6 6 0 100 12h35.424a6 6 0 000-12z"/><path d="M70.343 318.779h353.144a6 6 0 006-6v-93.55a6 6 0 00-6-6h-10.162v-9.811a6 6 0 00-6-6h-9.519v-11.552a6 6 0 00-12 0v11.552h-9.52a6 6 0 00-6 6v9.811h-4.162v-40.392a56.235 56.235 0 10-58.6-75.793H281.3V73.938a6 6 0 00-6-6h-11.364V40.119a6 6 0 00-6-6h-39.511V16a6 6 0 00-12 0v18.119h-37.007a6 6 0 00-6 6v27.819h-11.361a6 6 0 00-6 6v70.724l-12.587 6.194v-12.773a6 6 0 00-6-6h-10.712v-4.944a6 6 0 00-12 0v4.944H92.046a6 6 0 00-6 6v36.11l-18.353 9.031a6 6 0 00-3.35 5.383v124.172a6 6 0 006 6zm311.943-109.361h19.039v3.811h-19.039zm35.2 15.811v81.55h-51.362v-81.55zM360.124 72.688a44.241 44.241 0 11-44.236 44.237 44.287 44.287 0 0144.236-44.237zM281.3 109.044h23.154a56.439 56.439 0 00-.563 7.881 55.778 55.778 0 0011.148 33.615 56.573 56.573 0 0039.088 22.281v133.958H281.3zM175.418 46.119h76.518v21.819h-76.518zm-17.361 33.819H269.3v226.841H158.057zm-60.011 64.145h23.424v12.678l-23.424 11.527zm-21.7 48.259l69.714-34.305v148.742H76.343z"/><path d="M360.211 134.421h-.174a5.891 5.891 0 01-5.8-5.881 6 6 0 10-12 0 17.9 17.9 0 0011.886 16.828v2.132a6 6 0 0012 0v-2.129a17.873 17.873 0 00-6-34.714 5.885 5.885 0 115.886-5.885 6 6 0 0012 0 17.9 17.9 0 00-11.886-16.828v-1.591a6 6 0 00-12 0v1.588a17.873 17.873 0 006 34.713 5.884 5.884 0 01.087 11.767zm43.242 210.141l-1.2.645c-8.274-9.44-22.1-12.982-32.7-7.61-.045.022-.09.046-.134.069l-3.982 2.146a36.069 36.069 0 00-40.732-3.28L300.131 349.9h-32.767a46.647 46.647 0 01-20.194-4.626l-4.544-2.2a79.018 79.018 0 00-82.234 8.031c-.131.1-.259.2-.381.312l-10.972 9.768a37.022 37.022 0 01-12.948 7.48l-5.927-19.44a6 6 0 00-5.739-4.25H71.366a6 6 0 00-5.956 6.725L83.1 496.727A6 6 0 0089.053 502h79.588a6 6 0 005.739-7.75l-10.224-33.535 31.852-20.137a18.571 18.571 0 0113.5-1.735q.186.046.375.081l66.242 12.2a86.805 86.805 0 0053.626-7.572 5.925 5.925 0 00.734-.431l114.57-78.664a6 6 0 001.743-8.041 32.5 32.5 0 00-43.345-11.854zm-28.413 3.708c5.171-2.581 11.592-.782 16.12 2.923l-42.1 22.713-1.483.782a38.742 38.742 0 00-4.924-8.966zm-44.531-1.232l.142-.08a24.055 24.055 0 0122.8-.688l-19.792 10.665a38.6 38.6 0 00-11.31-5.461zM94.365 490L78.143 356.973h41.838L160.539 490zm229.686-57.019a74.713 74.713 0 01-45.771 6.337l-66.046-12.163a30.51 30.51 0 00-22.213 3.022 4.88 4.88 0 00-.279.166l-29.215 18.47-20.937-68.674a49.007 49.007 0 0017.428-9.993l10.784-9.6a67.058 67.058 0 0169.6-6.671l4.544 2.2a58.7 58.7 0 0025.419 5.824h44.065a26.808 26.808 0 0126.009 20.452l-30.562-1.384a192.035 192.035 0 00-34.951 1.614 6 6 0 001.644 11.887 180.1 180.1 0 0132.764-1.513l37.586 1.7c.091 0 .182.006.271.006a6 6 0 006-6c0-.59-.018-1.176-.044-1.76l4.559-2.4 54.446-29.372a20.531 20.531 0 0123.814 3.078z"/><path d="M108.065 470.625a16.612 16.612 0 1016.612-16.612 16.631 16.631 0 00-16.612 16.612zm16.612-4.612a4.612 4.612 0 11-4.612 4.612 4.617 4.617 0 014.612-4.612z"/></svg>